<svg width="89px" height="131px" viewBox="0 0 89 131" version="1.1" xmlns="http://www.w3.org/2000/svg" xmlns:xlink="http://www.w3.org/1999/xlink">
  <polygon id="Shape" fill="#3651D2" points="0.514786967 106.395939 88.514787 106.395939 88.514787 130.512352 0.514786967 130.512352"></polygon>
  <path d="M62.6992367,11.041848 L62.6992367,2.5442962 L87.1032581,2.5442962 L87.1032581,78.3116482 L62.6992367,78.3116482 L62.6992367,69.1382677 C56.0850627,79.3303605 46.5951608,80.8609137 40.3230992,80.8609137 C29.4746638,80.8609137 20.3219162,78.142691 12.0170125,69.3072249 C4.0542213,60.8146424 1,50.960464 1,40.9373284 C1,28.2009394 5.74495094,17.3280486 12.6962793,10.36105 C19.3054952,3.73693505 28.4632009,0 38.9695238,0 C45.4101626,0 55.7479084,1.52558386 62.6992367,11.041848 Z M45.0680501,21.0649836 C39.8124096,21.0649836 34.9038396,23.2713655 31.6810412,26.501429 C29.1375095,29.0457252 26.0832882,33.4634583 26.0832882,40.2614997 C26.0832882,47.0545718 28.9689324,51.4723048 31.1703516,53.8526132 C34.5617272,57.4156217 39.8124096,59.7959301 45.5787397,59.7959301 C50.4922678,59.7959301 55.0686416,57.7585054 58.29144,54.5284419 C61.5142385,51.4723048 64.2213892,46.7166574 64.2213892,40.2614997 C64.2213892,34.8250543 62.1885471,29.7265232 58.6285943,26.3275025 C54.9000645,22.764494 49.4758468,21.0600143 45.0680501,21.0600143 L45.0680501,21.0649836 Z" id="Shape" fill="#262626"></path>
</svg>
