<svg width="114" height="62" viewBox="0 0 114 62" fill="none" xmlns="http://www.w3.org/2000/svg"><g clip-path="url(#clip0)"><path d="M18.1985 26.5444V26.2495H14.0374C12.0793 26.2495 10.627 26.4461 9.68054 26.8394C8.76673 27.1998 8.30982 28.0027 8.30982 29.248C8.30982 31.116 9.61526 32.0499 12.2261 32.0499C14.4128 32.0499 15.9467 31.5911 16.8278 30.6736C17.7416 29.7232 18.1985 28.3468 18.1985 26.5444ZM10.6107 37.4571C7.54288 37.4571 5.27467 36.7034 3.80605 35.1959C2.33743 33.6557 1.60312 31.6731 1.60312 29.248C1.60312 26.3314 2.54956 24.2341 4.44245 22.956C6.33534 21.6452 9.22363 20.9898 13.1073 20.9898H18.1985V19.9083C18.1985 17.4833 16.6646 16.2708 13.5969 16.2708C10.8554 16.2708 9.33786 17.3194 9.04414 19.4168H2.19057C2.41902 16.8934 3.46337 14.7797 5.32363 13.0756C7.18388 11.3715 9.99058 10.5195 13.7437 10.5195C17.4642 10.5195 20.2709 11.3551 22.1638 13.0264C24.0567 14.6978 25.0032 17.0573 25.0032 20.1049V36.8673H18.8349V34.0162C17.3663 36.3102 14.6249 37.4571 10.6107 37.4571Z" fill="#00425E"/><path d="M40.6279 30.8702V36.8181C39.9426 36.9164 39.2246 36.9656 38.4739 36.9656C35.7651 36.9656 33.8396 36.3921 32.6974 35.2451C31.5551 34.0654 30.984 32.181 30.984 29.5921V0H37.9354V29.1006C37.9354 29.7232 38.0497 30.182 38.2781 30.4769C38.5066 30.7719 38.9798 30.9193 39.6978 30.9193C39.861 30.9193 40.0405 30.9193 40.2363 30.9193C40.4647 30.8866 40.5953 30.8702 40.6279 30.8702Z" fill="#00425E"/><path d="M68.0988 22.2187V36.8673H61.1473V21.5796C61.1473 18.2042 59.7766 16.5165 57.0352 16.5165C55.436 16.5165 54.1958 17.0081 53.3147 17.9912C52.4661 18.9744 52.0419 20.3343 52.0419 22.0712V36.8673H45.0904V11.1093H51.5034V14.2553C52.8414 11.7648 55.3055 10.5195 58.8954 10.5195C62.2896 10.5195 64.7699 11.732 66.3364 14.157C68.523 11.732 71.3624 10.5195 74.8544 10.5195C77.857 10.5195 80.1578 11.4534 81.757 13.3214C83.3561 15.1893 84.1557 17.6799 84.1557 20.7931V36.8673H77.2042V21.5796C77.2042 18.2042 75.8335 16.5165 73.0921 16.5165C71.4603 16.5165 70.2201 17.0245 69.3716 18.0404C68.523 19.0235 68.0988 20.4163 68.0988 22.2187Z" fill="#00425E"/><path d="M105.541 26.5444V26.2495H101.38C99.4221 26.2495 97.9698 26.4461 97.0234 26.8394C96.1096 27.1998 95.6526 28.0027 95.6526 29.248C95.6526 31.116 96.9581 32.0499 99.569 32.0499C101.756 32.0499 103.289 31.5911 104.171 30.6736C105.084 29.7232 105.541 28.3468 105.541 26.5444ZM97.9535 37.4571C94.8857 37.4571 92.6175 36.7034 91.1489 35.1959C89.6803 33.6557 88.9459 31.6731 88.9459 29.248C88.9459 26.3314 89.8924 24.2341 91.7853 22.956C93.6782 21.6452 96.5665 20.9898 100.45 20.9898H105.541V19.9083C105.541 17.4833 104.007 16.2708 100.94 16.2708C98.1983 16.2708 96.6807 17.3194 96.387 19.4168H89.5334C89.7618 16.8934 90.8062 14.7797 92.6665 13.0756C94.5267 11.3715 97.3334 10.5195 101.087 10.5195C104.807 10.5195 107.614 11.3551 109.507 13.0264C111.4 14.6978 112.346 17.0573 112.346 20.1049V36.8673H106.178V34.0162C104.709 36.3102 101.968 37.4571 97.9535 37.4571Z" fill="#00425E"/><rect y="53.7429" width="114" height="8.14286" fill="#FF414D"/></g><defs><clipPath id="clip0"><rect width="114" height="61.8857" fill="white"/></clipPath></defs></svg>
