<svg xmlns="http://www.w3.org/2000/svg" width="88" height="36" viewBox="0 0 88 36">
<path fill="#FFFFFF" d="M1 31h87v5H1z" />
<path fill="#FFFFFF" d="M13.008 11.85v-1.71h4.922v15.247h-4.922v-1.846C11.674 25.592 9.76 25.9 8.495 25.9c-2.188 0-4.034-.547-5.709-2.325C1.18 21.866.564 19.883.564 17.866c0-2.563.957-4.751 2.359-6.153 1.333-1.333 3.18-2.085 5.299-2.085 1.299 0 3.384.307 4.786 2.222zm-3.556 2.017c-1.06 0-2.05.444-2.7 1.094-.513.512-1.129 1.401-1.129 2.769 0 1.367.582 2.256 1.026 2.735.684.717 1.743 1.196 2.906 1.196.991 0 1.914-.41 2.564-1.06.65-.615 1.196-1.572 1.196-2.871 0-1.094-.41-2.12-1.128-2.804-.752-.717-1.846-1.06-2.735-1.06zM25.612.466h4.922v24.921h-4.922V.466zm12.604 24.921V10.141h4.922v1.777c1.265-1.914 3.111-2.154 4.274-2.154.65 0 1.846.069 2.871.684.786.445 1.436 1.197 1.846 2.12a5.82 5.82 0 0 1 1.949-1.949c1.06-.65 2.05-.855 3.247-.855 1.846 0 3.35.547 4.274 1.436 1.47 1.402 1.572 3.453 1.572 4.547v9.64h-4.923v-7.726c0-.786 0-2.153-.65-2.974-.41-.513-1.059-.82-1.777-.82-.82 0-1.504.376-1.914.923-.65.82-.752 2.017-.752 3.008v7.59h-4.923v-7.932c0-1.025-.034-2.222-.786-2.974-.513-.513-1.128-.615-1.641-.615-.65 0-1.23.17-1.71.615-.922.889-.957 2.598-.957 3.11v7.795h-4.922zM82.44 11.85v-1.71h4.923v15.247h-4.923v-1.846c-1.333 2.051-3.247 2.359-4.512 2.359-2.188 0-4.034-.547-5.71-2.325-1.606-1.709-2.221-3.692-2.221-5.709 0-2.563.957-4.751 2.359-6.153 1.333-1.333 3.179-2.085 5.298-2.085 1.3 0 3.385.307 4.786 2.222zm-3.555 2.017c-1.06 0-2.051.444-2.7 1.094-.513.512-1.129 1.401-1.129 2.769 0 1.367.581 2.256 1.026 2.735.683.717 1.743 1.196 2.906 1.196.99 0 1.914-.41 2.563-1.06.65-.615 1.197-1.572 1.197-2.871 0-1.094-.41-2.12-1.128-2.804-.752-.717-1.846-1.06-2.735-1.06z"/>
</svg>
